<svg viewBox="862 385 125 165" preserveAspectRatio="xMidYMid meet" version="1.1" xmlns="http://www.w3.org/2000/svg" xmlns:xlink="http://www.w3.org/1999/xlink"><g class="logo__item" id="logo__item--business" data-item="Business" data-item-type="text">
                <g class="logo__item__inner" transform="translate(873 547.5891700092563) scale(1 1) rotate(0 0 0)">
                    <text data-ttf-url="/builder_assets/fontsttf/font-montserrat-bold-normal.ttf" data-font-style="normal" data-font-weight="bold" data-font-family="Montserrat" font-style="normal" font-weight="bold" letter-spacing="0" fill="#EE3F2E" font-size="32px" font-family="Montserrat" alignment-baseline="auto" dominant-baseline="auto" dy="0" data-part-id="logo__item--business">ANPM</text>
                </g>
            </g><g class="logo__item" id="logo__item--logo_0" data-logo-item="" data-item="Image" data-item-type="image">
    <g transform="translate(853.9108299907437 377.5) scale(0.9478556001234187 0.9478556001234187) rotate(0 0 0)" class="logo__item__inner">
        
<g>
	<g>
		<path d="M42.7,45.2h-9.3c-0.8,0-1.5,0.3-2,0.8c-0.6,0.6-0.8,1.2-0.8,2v17.8c0,0.8,0.3,1.5,0.8,2    c0.5,0.5,1.2,0.8,2,0.8h9.2c0.8,0,1.5-0.3,2-0.8c0.6-0.6,0.8-1.2,0.8-2V48.1c0-0.8-0.3-1.5-0.8-2C44.2,45.5,43.5,45.2,42.7,45.2z     M42.6,65.7h-9.1V48.2h9.1V65.7z" fill="none" data-part-id="logo__item--logo_0__0"></path>
		<path d="M44.1,86.6c-0.4,0-0.8,0.1-1.1,0.4c-0.3,0.3-0.4,0.7-0.4,1.1v6.2h-3V73.7h-7.5c-0.4,0-0.8,0.2-1,0.4    c-0.3,0.3-0.4,0.6-0.4,1.1c0,0.4,0.2,0.8,0.4,1.1c0.3,0.3,0.6,0.4,1,0.4h4.5v17.6H32c-0.4,0-0.8,0.1-1.1,0.4    c-0.3,0.3-0.4,0.6-0.4,1c0,0.4,0.2,0.8,0.4,1.1c0.3,0.3,0.6,0.5,1.1,0.5h12c0.4,0,0.8-0.2,1.1-0.4c0.3-0.3,0.4-0.6,0.4-1.1V88    c0-0.4-0.1-0.8-0.4-1.1C44.8,86.7,44.5,86.6,44.1,86.6z" fill="none" data-part-id="logo__item--logo_0__1"></path>
		<path d="M70.1,104.5h-9.3c-0.8,0-1.4,0.3-2,0.8c-0.6,0.6-0.8,1.2-0.8,2v17.8c0,0.8,0.3,1.5,0.8,2    c0.6,0.6,1.2,0.9,2,0.9h9.3c0.8,0,1.5-0.3,2-0.9c0.6-0.6,0.8-1.2,0.8-2v-17.8c0-0.8-0.3-1.4-0.8-2    C71.5,104.8,70.9,104.5,70.1,104.5z M70,125h-9.1v-17.5H70V125z" fill="none" data-part-id="logo__item--logo_0__2"></path>
		<path d="M126.1,58.1c-0.4,0-0.8,0.1-1.1,0.5c-0.3,0.3-0.4,0.6-0.4,1v6.2h-3V45.2h-7.5c-0.4,0-0.8,0.1-1.1,0.4    c-0.3,0.3-0.4,0.6-0.4,1c0,0.4,0.1,0.8,0.4,1.1c0.3,0.3,0.6,0.4,1.1,0.4h4.5v17.5h-4.6c-0.4,0-0.8,0.2-1.1,0.4    c-0.3,0.3-0.4,0.7-0.4,1c0,0.4,0.2,0.8,0.4,1.1c0.3,0.3,0.6,0.5,1.1,0.5h12c0.4,0,0.8-0.2,1.1-0.4c0.3-0.3,0.4-0.6,0.4-1v-7.7    c0-0.4-0.1-0.8-0.4-1.1C126.9,58.2,126.5,58.1,126.1,58.1z" fill="none" data-part-id="logo__item--logo_0__3"></path>
		<path d="M70,18.9c-3.1,0.3-6.1,0.8-9.1,1.6v15.9H70V18.9z" fill="#EE3F2E" data-part-id="logo__item--logo_0__4"></path>
		<path d="M33.6,112.2c2.7,3,5.7,5.7,9.1,8v-12.7h-9.1V112.2z" fill="#EE3F2E" data-part-id="logo__item--logo_0__5"></path>
		<path d="M42.6,28.9c-3.1,2.2-5.9,4.7-8.5,7.5h8.5V28.9z" fill="#EE3F2E" data-part-id="logo__item--logo_0__6"></path>
		<rect height="17.5" width="9.1" fill="#EE3F2E" y="48.2" x="33.6" data-part-id="logo__item--logo_0__7"></rect>
		<rect height="17.6" width="9.1" fill="#EE3F2E" y="76.7" x="115.6" data-part-id="logo__item--logo_0__8"></rect>
		<rect height="17.5" width="9.1" fill="#EE3F2E" y="107.5" x="60.9" data-part-id="logo__item--logo_0__9"></rect>
		<path d="M130.8,74.5c0-13.4-4.7-25.6-12.5-35.2h-4.2c-0.4,0-0.8-0.2-1.1-0.5c-0.3-0.3-0.4-0.7-0.4-1.1    c0-0.4,0.2-0.7,0.4-1c0.3-0.3,0.6-0.4,1.1-0.4h1.5c-5.9-6.3-13.1-11.1-21.3-14.2v14.2h3v-6.2c0-0.4,0.1-0.7,0.4-1    c0.3-0.3,0.6-0.4,1.1-0.4c0.4,0,0.8,0.1,1,0.4c0.3,0.3,0.4,0.6,0.4,1v7.7c0,0.4-0.2,0.8-0.4,1.1c-0.3,0.3-0.6,0.4-1,0.4h-12    c-0.4,0-0.8-0.2-1-0.5c-0.3-0.3-0.4-0.7-0.4-1.1c0-0.4,0.1-0.7,0.4-1c0.3-0.3,0.6-0.4,1-0.4h4.6V21.1c-5.2-1.6-10.7-2.5-16.4-2.5    c-0.7,0-1.3,0.1-2,0.1v17.7c0,0.8-0.3,1.5-0.8,2c-0.5,0.6-1.2,0.9-2,0.9h-9.3c-0.8,0-1.5-0.3-2-0.9c-0.5-0.6-0.8-1.2-0.8-2V21.2    c-4.4,1.4-8.5,3.4-12.3,5.7v9.5c0,0.8-0.3,1.5-0.8,2c-0.6,0.6-1.2,0.9-2,0.9h-9.2c-0.6,0-1.1-0.2-1.6-0.5    c-8.1,9.7-13,22.2-13,35.8c0,12.9,4.4,24.7,11.7,34.1v-1.3c0-0.8,0.3-1.4,0.8-2c0.6-0.6,1.2-0.8,2-0.8h9.3c0.8,0,1.4,0.3,2,0.8    c0.6,0.6,0.8,1.2,0.8,2v14.8c8.5,5.2,18.5,8.3,29.3,8.3c5.7,0,11.2-0.9,16.3-2.4h-4.5c-0.4,0-0.8-0.2-1-0.5    c-0.3-0.3-0.4-0.7-0.4-1.1c0-0.4,0.1-0.8,0.4-1c0.3-0.3,0.6-0.4,1-0.4h4.6v-17.5h-4.5c-0.4,0-0.8-0.2-1.1-0.4    c-0.3-0.3-0.4-0.6-0.4-1.1c0-0.4,0.2-0.8,0.4-1c0.3-0.3,0.6-0.4,1.1-0.4h7.5V125h3v-6.2c0-0.4,0.1-0.8,0.4-1.1    c0.3-0.3,0.6-0.4,1.1-0.4c0.4,0,0.8,0.2,1,0.4c0.3,0.3,0.4,0.6,0.4,1.1v5.5c7.2-3.7,13.4-8.8,18.4-15.1v-1.8h-4.5    c-0.4,0-0.8-0.2-1.1-0.4c-0.3-0.3-0.4-0.6-0.4-1.1c0-0.4,0.1-0.8,0.4-1c0.3-0.3,0.6-0.4,1.1-0.4h7.5v0.7c1.7-2.7,3.3-5.4,4.5-8.4    c-0.4,0.2-0.9,0.4-1.4,0.4h-9.2c-0.8,0-1.5-0.3-2-0.8c-0.6-0.6-0.8-1.2-0.8-2V76.5c0-0.8,0.3-1.5,0.9-2c0.6-0.6,1.2-0.9,2-0.9h9.3    c0.8,0,1.4,0.3,2,0.9c0.6,0.6,0.8,1.3,0.8,2V93C129.6,87.2,130.8,81,130.8,74.5z M45.5,95.7c0,0.4-0.1,0.8-0.4,1.1    c-0.3,0.3-0.6,0.4-1.1,0.4H32c-0.4,0-0.8-0.2-1.1-0.5c-0.3-0.3-0.4-0.7-0.4-1.1c0-0.4,0.2-0.8,0.4-1c0.3-0.3,0.6-0.4,1.1-0.4h4.6    V76.7h-4.5c-0.4,0-0.8-0.1-1-0.4c-0.3-0.3-0.4-0.6-0.4-1.1c0-0.4,0.2-0.8,0.4-1.1c0.3-0.3,0.6-0.4,1-0.4h7.5v20.5h3V88    c0-0.4,0.2-0.8,0.4-1.1c0.3-0.3,0.6-0.4,1.1-0.4c0.4,0,0.8,0.1,1.1,0.4c0.3,0.3,0.4,0.7,0.4,1.1V95.7z M45.6,65.9    c0,0.8-0.3,1.5-0.8,2c-0.6,0.5-1.2,0.8-2,0.8h-9.2c-0.8,0-1.5-0.3-2-0.8c-0.6-0.6-0.8-1.2-0.8-2V48.1c0-0.8,0.3-1.5,0.8-2    c0.6-0.6,1.2-0.8,2-0.8h9.3c0.8,0,1.4,0.3,2,0.8c0.6,0.6,0.8,1.2,0.8,2V65.9z M72.9,125.1c0,0.8-0.3,1.5-0.8,2    c-0.5,0.6-1.2,0.9-2,0.9h-9.3c-0.8,0-1.5-0.3-2-0.9c-0.5-0.6-0.8-1.2-0.8-2v-17.8c0-0.8,0.3-1.4,0.8-2c0.6-0.6,1.2-0.8,2-0.8h9.3    c0.8,0,1.4,0.3,2,0.8c0.6,0.6,0.8,1.2,0.8,2V125.1z M65.2,96l0.6-0.8c1.5-8.3,3.8-16.4,5.5-24.7c-5.3-3.3-7.5-11-3.9-16.3    c3.7-6.3,13.5-7.3,18.4-1.8c5.2,5.1,3.6,14.4-2.5,18.1c1,4.8,2.2,9.5,3.3,14.3c0.8,3.7,1.7,7.4,2.6,11.2    C81.3,96.1,73.2,96.1,65.2,96z M127.6,67.2c0,0.4-0.1,0.8-0.4,1c-0.3,0.3-0.7,0.4-1.1,0.4h-12c-0.4,0-0.8-0.2-1.1-0.5    c-0.3-0.3-0.4-0.6-0.4-1.1c0-0.4,0.2-0.7,0.4-1c0.3-0.3,0.6-0.4,1.1-0.4h4.6V48.2h-4.5c-0.4,0-0.8-0.1-1.1-0.4    c-0.3-0.3-0.4-0.6-0.4-1.1c0-0.4,0.1-0.8,0.4-1c0.3-0.3,0.6-0.4,1.1-0.4h7.5v20.5h3v-6.2c0-0.4,0.1-0.8,0.4-1    c0.3-0.3,0.6-0.5,1.1-0.5c0.4,0,0.8,0.1,1.1,0.4c0.3,0.3,0.4,0.6,0.4,1.1V67.2z" fill="#EE3F2E" data-part-id="logo__item--logo_0__10"></path>
		<path d="M83.3,70.6c6.1-3.7,7.7-13,2.5-18.1c-4.8-5.5-14.7-4.6-18.4,1.8c-3.6,5.3-1.5,13,3.9,16.3    c-1.7,8.2-4.1,16.4-5.5,24.7L65.2,96c8,0.1,16,0.1,24,0.1c-0.9-3.7-1.8-7.4-2.6-11.2C85.5,80.1,84.4,75.4,83.3,70.6z" fill="#FFFFFF" data-part-id="logo__item--logo_0__11"></path>
	</g>
	<g>
		<path d="M11.7,75C11.7,40,40,11.7,75,11.7l0,0c35,0,63.3,28.3,63.3,63.3l0,0c0,35-28.4,63.3-63.3,63.3l0,0    C40,138.3,11.7,110,11.7,75L11.7,75z M75,134.3c32.7-0.1,59.2-26.6,59.3-59.3l0,0c-0.1-32.8-26.6-59.2-59.3-59.3l0,0    C42.2,15.8,15.8,42.2,15.7,75l0,0h0C15.8,107.7,42.2,134.2,75,134.3L75,134.3z" fill="#891D0D" data-part-id="logo__item--logo_0__12"></path>
	</g>
</g>

    </g>
</g></svg>
